<svg width="1486" height="1251" viewBox="0 0 1486 1251" fill="none" xmlns="http://www.w3.org/2000/svg">
<g clip-path="url(#clip0_73_1111)">
<mask id="mask0_73_1111" style="mask-type:luminance" maskUnits="userSpaceOnUse" x="0" y="0" width="1486" height="1251">
<path d="M1486 0H0V1251H1486V0Z" fill="white"/>
</mask>
<g mask="url(#mask0_73_1111)">
<path opacity="0.5" d="M665.627 366.665C674.299 366.665 681.331 359.631 681.331 350.957C681.331 342.281 674.299 335.246 665.627 335.246C656.956 335.246 649.924 342.281 649.924 350.957C649.924 359.631 656.956 366.665 665.627 366.665Z" fill="#F5F0FF" stroke="#191919" stroke-width="2" stroke-linecap="round" stroke-linejoin="round"/>
<path d="M665.627 366.665C674.299 366.665 681.331 359.631 681.331 350.957C681.331 342.281 674.299 335.246 665.627 335.246C656.956 335.246 649.924 342.281 649.924 350.957C649.924 359.631 656.956 366.665 665.627 366.665Z" stroke="#191919" stroke-width="2" stroke-linecap="round" stroke-linejoin="round"/>
<path opacity="0.5" d="M604.606 484.535C622.035 484.535 636.164 470.4 636.164 452.965C636.164 435.529 622.035 421.396 604.606 421.396C587.178 421.396 573.048 435.529 573.048 452.965C573.048 470.4 587.178 484.535 604.606 484.535Z" fill="#F5F0FF" stroke="#191919" stroke-width="2" stroke-linecap="round" stroke-linejoin="round"/>
<path d="M604.606 484.535C622.035 484.535 636.164 470.4 636.164 452.965C636.164 435.529 622.035 421.396 604.606 421.396C587.178 421.396 573.048 435.529 573.048 452.965C573.048 470.4 587.178 484.535 604.606 484.535Z" stroke="#191919" stroke-width="2" stroke-linecap="round" stroke-linejoin="round"/>
<path opacity="0.5" d="M245.405 320.933C254.343 320.933 261.59 313.684 261.59 304.743C261.59 295.803 254.343 288.554 245.405 288.554C236.468 288.554 229.223 295.803 229.223 304.743C229.223 313.684 236.468 320.933 245.405 320.933Z" fill="#F5F0FF" stroke="#191919" stroke-width="2" stroke-linecap="round" stroke-linejoin="round"/>
<path d="M245.405 320.933C254.343 320.933 261.59 313.684 261.59 304.743C261.59 295.803 254.343 288.554 245.405 288.554C236.468 288.554 229.223 295.803 229.223 304.743C229.223 313.684 236.468 320.933 245.405 320.933Z" stroke="#191919" stroke-width="2" stroke-linecap="round" stroke-linejoin="round"/>
<path opacity="0.5" d="M192.867 940.612C210.296 940.612 224.425 926.478 224.425 909.042C224.425 891.606 210.296 877.474 192.867 877.474C175.438 877.474 161.309 891.606 161.309 909.042C161.309 926.478 175.438 940.612 192.867 940.612Z" fill="#F5F0FF" stroke="#191919" stroke-width="2" stroke-linecap="round" stroke-linejoin="round"/>
<path d="M192.867 940.612C210.296 940.612 224.425 926.478 224.425 909.042C224.425 891.606 210.296 877.474 192.867 877.474C175.438 877.474 161.309 891.606 161.309 909.042C161.309 926.478 175.438 940.612 192.867 940.612Z" stroke="#191919" stroke-width="2" stroke-linecap="round" stroke-linejoin="round"/>
<path opacity="0.5" d="M511.648 1234.71C529.077 1234.71 543.206 1220.57 543.206 1203.14C543.206 1185.7 529.077 1171.57 511.648 1171.57C494.22 1171.57 480.09 1185.7 480.09 1203.14C480.09 1220.57 494.22 1234.71 511.648 1234.71Z" fill="#F5F0FF" stroke="#191919" stroke-width="2" stroke-linecap="round" stroke-linejoin="round"/>
<path d="M511.648 1234.71C529.077 1234.71 543.206 1220.57 543.206 1203.14C543.206 1185.7 529.077 1171.57 511.648 1171.57C494.22 1171.57 480.09 1185.7 480.09 1203.14C480.09 1220.57 494.22 1234.71 511.648 1234.71Z" stroke="#191919" stroke-width="2" stroke-linecap="round" stroke-linejoin="round"/>
<path opacity="0.5" d="M930.891 66.202C936.732 66.202 941.469 61.4643 941.469 55.6198C941.469 49.7755 936.732 45.0376 930.891 45.0376C925.05 45.0376 920.313 49.7755 920.313 55.6198C920.313 61.4643 925.05 66.202 930.891 66.202Z" fill="#F5F0FF" stroke="#191919" stroke-width="2" stroke-linecap="round" stroke-linejoin="round"/>
<path d="M930.891 66.202C936.732 66.202 941.469 61.4643 941.469 55.6198C941.469 49.7755 936.732 45.0376 930.891 45.0376C925.05 45.0376 920.313 49.7755 920.313 55.6198C920.313 61.4643 925.05 66.202 930.891 66.202Z" stroke="#191919" stroke-width="2" stroke-linecap="round" stroke-linejoin="round"/>
<path opacity="0.5" d="M220.208 563.136C226.05 563.136 230.786 558.398 230.786 552.554C230.786 546.709 226.05 541.972 220.208 541.972C214.366 541.972 209.63 546.709 209.63 552.554C209.63 558.398 214.366 563.136 220.208 563.136Z" fill="#F5F0FF" stroke="#191919" stroke-width="2" stroke-linecap="round" stroke-linejoin="round"/>
<path d="M220.208 563.136C226.05 563.136 230.786 558.398 230.786 552.554C230.786 546.709 226.05 541.972 220.208 541.972C214.366 541.972 209.63 546.709 209.63 552.554C209.63 558.398 214.366 563.136 220.208 563.136Z" stroke="#191919" stroke-width="2" stroke-linecap="round" stroke-linejoin="round"/>
<path opacity="0.5" d="M230.813 252.922C235.79 252.922 239.826 248.883 239.826 243.904C239.826 238.925 235.79 234.888 230.813 234.888C225.835 234.888 221.8 238.925 221.8 243.904C221.8 248.883 225.835 252.922 230.813 252.922Z" fill="#F5F0FF" stroke="#191919" stroke-width="2" stroke-linecap="round" stroke-linejoin="round"/>
<path d="M230.813 252.922C235.79 252.922 239.826 248.883 239.826 243.904C239.826 238.925 235.79 234.888 230.813 234.888C225.835 234.888 221.8 238.925 221.8 243.904C221.8 248.883 225.835 252.922 230.813 252.922Z" stroke="#191919" stroke-width="2" stroke-linecap="round" stroke-linejoin="round"/>
<path opacity="0.5" d="M285.722 992.989C296.445 992.989 305.138 984.293 305.138 973.567C305.138 962.84 296.445 954.145 285.722 954.145C275 954.145 266.309 962.84 266.309 973.567C266.309 984.293 275 992.989 285.722 992.989Z" fill="#F5F0FF" stroke="#191919" stroke-width="2" stroke-linecap="round" stroke-linejoin="round"/>
<path d="M285.722 992.989C296.445 992.989 305.138 984.293 305.138 973.567C305.138 962.84 296.445 954.145 285.722 954.145C275 954.145 266.309 962.84 266.309 973.567C266.309 984.293 275 992.989 285.722 992.989Z" stroke="#191919" stroke-width="2" stroke-linecap="round" stroke-linejoin="round"/>
<path opacity="0.5" d="M893.299 140.475C904.021 140.475 912.714 131.78 912.714 121.053C912.714 110.327 904.021 101.632 893.299 101.632C882.576 101.632 873.885 110.327 873.885 121.053C873.885 131.78 882.576 140.475 893.299 140.475Z" fill="#F5F0FF" stroke="#191919" stroke-width="2" stroke-linecap="round" stroke-linejoin="round"/>
<path d="M893.299 140.475C904.021 140.475 912.714 131.78 912.714 121.053C912.714 110.327 904.021 101.632 893.299 101.632C882.576 101.632 873.885 110.327 873.885 121.053C873.885 131.78 882.576 140.475 893.299 140.475Z" stroke="#191919" stroke-width="2" stroke-linecap="round" stroke-linejoin="round"/>
<path d="M611.35 752.499C614.405 759.724 621.6 766.616 628.896 770.203" stroke="#191919" stroke-width="2" stroke-linecap="round" stroke-linejoin="round"/>
<path d="M611.271 544.417C609.379 544.214 601.123 572.628 606.297 578.36C608.294 580.557 614.05 582.602 618.467 578.79C625.486 572.677 613.493 544.669 611.271 544.442V544.417Z" fill="#E7DBFD" stroke="#191919" stroke-width="2" stroke-linecap="round" stroke-linejoin="round"/>
<path d="M539.674 522.771C537.78 522.896 534.373 552.295 540.456 557.069C542.805 558.911 548.813 559.972 552.498 555.451C558.406 548.253 541.869 522.644 539.674 522.796V522.771Z" fill="#E7DBFD" stroke="#191919" stroke-width="2" stroke-linecap="round" stroke-linejoin="round"/>
<path d="M484.89 518.806C483.047 519.285 484.993 548.784 491.783 552.395C494.41 553.785 500.518 553.758 503.346 548.632C507.84 540.474 487.036 518.249 484.866 518.806H484.89Z" fill="#E7DBFD" stroke="#191919" stroke-width="2" stroke-linecap="round" stroke-linejoin="round"/>
<path d="M458.257 529.818C456.49 530.5 462.122 559.568 469.317 562.271C472.093 563.307 478.152 562.525 480.323 557.093C483.757 548.432 460.328 529.034 458.257 529.818Z" fill="#E7DBFD" stroke="#191919" stroke-width="2" stroke-linecap="round" stroke-linejoin="round"/>
<path d="M615.263 564.973C622.509 566.337 629.678 582.627 631.572 616.773C633.288 647.661 663.963 666.678 667.295 698.828C677.545 714.109 690.648 713.933 706.678 718.402C706.678 718.402 703.271 712.264 705.948 709.058C709.127 712.088 714.58 718.756 734.196 723.757C778.454 735.021 851.365 736.561 903.297 776.365C903.549 772.373 908.926 769.216 911.578 769.319C911.478 773.46 912.99 777.475 921.498 786.415C921.374 780.734 925.387 777.853 927.205 777.829C926.017 786.542 939.374 796.391 941.42 802.504C1010.54 860.214 1026.67 953.863 1060.53 1006.29C1075.17 1029.02 857.903 1032.53 841.697 973.738C825.463 914.943 803.322 890.092 794.587 872.69C754.47 835.993 640.483 807.176 604.809 760.53C581.659 730.247 535.307 715.245 530.915 713.527C516.676 707.946 496.075 706.305 486.406 698.752C479.262 691.505 476.559 679.002 486.406 670.114C500.645 657.259 495.014 638.67 482.517 614.07C471.536 594.699 458.055 566.539 463.18 553.052C466.335 544.794 479.489 546.308 486.354 550.098C485.421 543.758 486.127 537.774 491.228 536.081C504.079 531.812 516.094 543.227 522.053 556.512C529.879 555.503 531.521 545.224 543.639 543.303C561.134 540.652 567.092 560.377 586.887 564.392C602.866 567.624 607.637 563.483 615.263 564.922H615.287L615.263 564.973Z" fill="#A57BEC" stroke="#191919" stroke-width="2" stroke-linecap="round" stroke-linejoin="round"/>
<path d="M484.233 674.126C486.379 670.184 496.199 662.559 510.287 664.704C523.895 666.776 536.568 679.403 562.319 681.272C580.825 682.611 605.919 679.53 622.885 703.118" stroke="#191919" stroke-width="2" stroke-linecap="round" stroke-linejoin="round"/>
<path d="M452.401 675.442C451.819 677.262 477.898 691.202 484.563 687.314C487.114 685.824 490.346 680.595 487.466 675.493C482.923 667.386 453.056 673.321 452.401 675.442Z" fill="#E7DBFD" stroke="#191919" stroke-width="2" stroke-linecap="round" stroke-linejoin="round"/>
<path d="M486.381 550.147C508.371 565.704 500.872 616.518 556.287 647.735" stroke="#191919" stroke-width="2" stroke-linecap="round" stroke-linejoin="round"/>
<path d="M522.028 556.561C532.379 578.886 536.495 590.882 548.512 611.365C560.527 631.848 574.642 641.57 579.313 639.652" stroke="#191919" stroke-width="2" stroke-linecap="round" stroke-linejoin="round"/>
<path d="M574.161 570.075C579.186 585.101 597.893 632.053 607.158 634.78C613.72 636.7 610.389 614.954 607.637 604.548C605.416 596.114 593.044 572.196 606.704 565.073" stroke="#191919" stroke-width="2" stroke-linecap="round" stroke-linejoin="round"/>
<path d="M903.297 776.385C905.646 778.481 907.968 780.78 909.18 781.992" stroke="#191919" stroke-width="2" stroke-linecap="round" stroke-linejoin="round"/>
<path d="M627.735 752.774C630.159 756.716 634.349 760.427 637.807 761.742" stroke="#191919" stroke-width="2" stroke-linecap="round" stroke-linejoin="round"/>
<path d="M659.341 784.167C662.902 786.869 670.855 791.316 676.738 793.867" stroke="#191919" stroke-width="2" stroke-linecap="round" stroke-linejoin="round"/>
<path d="M689.56 775.703C692.109 777.321 698.571 779.947 701.35 781.313" stroke="#191919" stroke-width="2" stroke-linecap="round" stroke-linejoin="round"/>
<path d="M716.855 804.342C721.423 806.641 735.487 813.157 739.097 814.824" stroke="#191919" stroke-width="2" stroke-linecap="round" stroke-linejoin="round"/>
<path d="M695.7 808.515C701.458 811.193 716.225 817.709 722.108 820.512" stroke="#191919" stroke-width="2" stroke-linecap="round" stroke-linejoin="round"/>
<path d="M810.114 880.362C804.989 878.899 799.106 876.624 794.562 872.761" stroke="#191919" stroke-width="2" stroke-linecap="round" stroke-linejoin="round"/>
<path d="M996.253 897.918C1000.01 902.641 1003.88 913.526 1006.22 920.319" stroke="#191919" stroke-width="2" stroke-linecap="round" stroke-linejoin="round"/>
<path d="M875.173 772.349C881.183 774.597 888.858 779.144 893.149 782.225" stroke="#191919" stroke-width="2" stroke-linecap="round" stroke-linejoin="round"/>
<path d="M920.289 794.241C923.243 796.11 929.075 802.045 929.075 802.045" stroke="#191919" stroke-width="2" stroke-linecap="round" stroke-linejoin="round"/>
<path d="M775.069 745.022C782.391 746.385 791.126 748.482 791.126 748.482" stroke="#191919" stroke-width="2" stroke-linecap="round" stroke-linejoin="round"/>
<path d="M848.792 771.51C853.311 772.446 861.819 776.436 865.001 778.884" stroke="#191919" stroke-width="2" stroke-linecap="round" stroke-linejoin="round"/>
<path d="M674.238 715.45C670.755 713.151 668.179 704.614 667.294 698.83" stroke="#191919" stroke-width="2" stroke-linecap="round" stroke-linejoin="round"/>
<path d="M688.399 722.844C691.682 724.258 696.252 724.586 696.252 724.586" stroke="#191919" stroke-width="2" stroke-linecap="round" stroke-linejoin="round"/>
<path d="M650.833 722.893C652.728 725.873 657.777 729.055 657.777 729.055" stroke="#191919" stroke-width="2" stroke-linecap="round" stroke-linejoin="round"/>
<path d="M769.391 834.227C774.086 837.584 781.079 840.565 783.755 842.561" stroke="#191919" stroke-width="2" stroke-linecap="round" stroke-linejoin="round"/>
<path d="M745.334 831.849C748.743 832.961 753.16 835.966 753.16 835.966" stroke="#191919" stroke-width="2" stroke-linecap="round" stroke-linejoin="round"/>
<path d="M1021.09 956.588C1024.7 964.341 1029.2 983.384 1032.35 987.553" stroke="#191919" stroke-width="2" stroke-linecap="round" stroke-linejoin="round"/>
<path d="M1005.69 936.965C1008.35 941.158 1012.08 950.831 1012.08 950.831" stroke="#191919" stroke-width="2" stroke-linecap="round" stroke-linejoin="round"/>
<path d="M990.622 916.683C993.146 920.167 995.747 928.098 995.747 928.098" stroke="#191919" stroke-width="2" stroke-linecap="round" stroke-linejoin="round"/>
<path d="M987.772 955.275C989.666 958.862 992.873 967.751 992.873 967.751" stroke="#191919" stroke-width="2" stroke-linecap="round" stroke-linejoin="round"/>
<path d="M972.521 945.656C973.758 948.51 975.803 954.445 976.737 955.887" stroke="#191919" stroke-width="2" stroke-linecap="round" stroke-linejoin="round"/>
<path d="M953.79 902.662C955.254 904.631 958.081 910.036 959.748 914.759" stroke="#191919" stroke-width="2" stroke-linecap="round" stroke-linejoin="round"/>
<path d="M876.889 944.444C878.859 947.677 880.499 953.991 881.157 956.996" stroke="#191919" stroke-width="2" stroke-linecap="round" stroke-linejoin="round"/>
<path d="M865.201 957.623C867.12 959.922 871.285 965.757 871.993 969.72" stroke="#191919" stroke-width="2" stroke-linecap="round" stroke-linejoin="round"/>
<path d="M945.409 950.855C948.036 956.487 951.04 965.706 951.04 965.706" stroke="#191919" stroke-width="2" stroke-linecap="round" stroke-linejoin="round"/>
<path d="M984.238 971.644C986.863 981.517 992.039 997.101 1000.07 1009.22" stroke="#191919" stroke-width="2" stroke-linecap="round" stroke-linejoin="round"/>
<path d="M834.929 752.164C839.727 752.543 844.801 754.993 844.801 754.993" stroke="#191919" stroke-width="2" stroke-linecap="round" stroke-linejoin="round"/>
<path d="M739.094 759.643C743.513 761.006 750.027 763.584 750.027 763.584" stroke="#191919" stroke-width="2" stroke-linecap="round" stroke-linejoin="round"/>
<path d="M828.342 792.328C832.659 794.07 836.371 796.267 839.072 799.045" stroke="#191919" stroke-width="2" stroke-linecap="round" stroke-linejoin="round"/>
<path d="M393.929 756.889C403.698 763.33 413.721 770.68 423.872 778.963" stroke="#F3BCAB" stroke-width="2" stroke-linecap="round" stroke-linejoin="round"/>
<path d="M1255.43 993.915C1264.12 937.898 1385.55 884.557 1386.03 865.086C1387.62 864.075 1393.35 869.858 1391.21 876.223C1415.24 847.836 1467.53 835.485 1495.78 795.052L1491.46 991.567L1255.43 993.942V993.915Z" fill="#A57BEC" stroke="#191919" stroke-width="2" stroke-linecap="round" stroke-linejoin="round"/>
<path d="M1491.46 991.55L1487.87 1253.6L685.953 1260.78C626.901 1226.63 607.336 1184.45 591.582 1150.23C593.879 1155.71 594.637 1162.99 589.739 1163.42C580.222 1140.46 500.518 1105.1 467.269 1068.63C430.585 1028.37 428.466 997.309 421.295 978.341C414.127 959.4 399.964 926.793 415.994 895.855C423.769 880.853 450.656 866.054 488.728 845.42C529.199 823.446 522.028 825.391 522.028 825.391C546.77 820.163 626.246 831.453 670.755 855.496C734.45 889.896 839.499 971.497 856.769 975.335C894.134 968.795 1198.98 962.178 1276.34 1002.08C1297.62 994.579 1478.91 981.068 1491.44 991.525L1491.46 991.55Z" fill="#A57BEC" stroke="#191919" stroke-width="2" stroke-linecap="round" stroke-linejoin="round"/>
<path d="M1491.46 991.544L1487.87 1253.6C1478.68 1250.54 1171.84 1256.13 1171.84 1256.13C1142.08 1237.29 1083.05 1223.19 1079.59 1220.72C1083.05 1219 1086.49 1214.76 1085.8 1210.87C1075.5 1218.04 1059.17 1210.18 1046.64 1211.75C1048.92 1210.26 1051.59 1205.69 1049.6 1202.76C1046.64 1206.65 1038.95 1202.56 1034.83 1202.41C1038.01 1200.84 1041.12 1195.81 1039.32 1193.69C1033.9 1197.78 1017.08 1204.45 953.941 1169.55C890.825 1134.7 858.915 1066.68 837.253 1059.08C843.591 1058.47 848.867 1053.75 846.164 1051.38C838.338 1054.33 803.246 1027.21 794.587 1027.46C797.187 1026.95 799.636 1021.5 799.636 1020.59C794.738 1023.47 785.17 1017.76 778.608 1017.16C782.418 1015.34 784.185 1011.32 783.2 1007.23C767.472 1015.79 750.608 993.717 735.032 994.501C737.784 993.516 742.152 989.323 741.494 987.2C734.956 990.838 718.696 972.982 711.376 973.007C716.777 972.779 720.187 967.553 719.226 965.86C710.794 968.538 701.859 953.966 689.689 953.308C694.561 953.13 697.44 950.503 698.576 946.589C674.744 941.842 668.382 914.161 648.512 899.589C655.152 898.704 658.359 897.544 658.787 892.036C629.375 901.964 582.898 846.829 473.53 860.014C513.999 838.04 535.031 806.951 535.031 806.951C682.267 782.781 790.119 915.778 815.061 906.687C817.637 909.338 814.455 914.818 809.053 915.778C811.251 918.556 817.283 919.111 820.565 916.208C823.192 918.53 821.877 922.798 818.646 925.576C833.719 923.253 859.546 935.376 876.816 939.215C914.178 932.674 948.337 955.986 956.038 945.504C958.687 947.701 958.081 951.994 955.077 955.378C957.248 957.298 963.434 954.696 966.741 952.803C968.659 955.429 968.432 958.662 966.489 960.961C970.654 962.273 974.845 962.324 976.942 959.773C977.849 960.631 978.861 965.911 977.118 967.932C1006.5 962.527 1041.52 969.498 1073.71 968.511C1105.95 967.502 1408.83 922.371 1491.36 991.544H1491.46Z" fill="#D0BAF7" stroke="#191919" stroke-width="2" stroke-linecap="round" stroke-linejoin="round"/>
<path d="M874.897 947.039C883.202 949.49 889.615 955.728 889.615 955.728" stroke="#191919" stroke-width="2" stroke-linecap="round" stroke-linejoin="round"/>
<path d="M791.859 912.343C795.772 915.121 799.585 916.005 799.585 916.005" stroke="#191919" stroke-width="2" stroke-linecap="round" stroke-linejoin="round"/>
<path d="M785.5 944.269C788.631 946.341 794.36 947.073 796.178 946.619" stroke="#191919" stroke-width="2" stroke-linecap="round" stroke-linejoin="round"/>
<path d="M776.762 952.092C779.111 953.455 783.276 954.34 784.591 954.061" stroke="#191919" stroke-width="2" stroke-linecap="round" stroke-linejoin="round"/>
<path d="M739.979 1019C746.517 1018.04 754.546 1019.83 754.546 1019.83" stroke="#191919" stroke-width="2" stroke-linecap="round" stroke-linejoin="round"/>
<path d="M738.366 1042.51C743.185 1041.47 748.362 1042.49 750.684 1043.47" stroke="#191919" stroke-width="2" stroke-linecap="round" stroke-linejoin="round"/>
<path d="M691.457 1105.58C695.497 1108.44 701.252 1110.38 703.701 1110.43" stroke="#191919" stroke-width="2" stroke-linecap="round" stroke-linejoin="round"/>
<path d="M624.682 1119.72C630.035 1124.11 637.003 1127.09 642.556 1128.1" stroke="#191919" stroke-width="2" stroke-linecap="round" stroke-linejoin="round"/>
<path d="M611.25 1138.79C614.178 1141.72 615.49 1145.2 618.318 1150.25" stroke="#191919" stroke-width="2" stroke-linecap="round" stroke-linejoin="round"/>
<path d="M566.466 1129.92C569.773 1130.7 576.714 1136.05 580.2 1139.47" stroke="#191919" stroke-width="2" stroke-linecap="round" stroke-linejoin="round"/>
<path d="M534.806 1107.07C540.234 1110.3 546.699 1113.03 549.121 1114.42" stroke="#191919" stroke-width="2" stroke-linecap="round" stroke-linejoin="round"/>
<path d="M563.812 1101.16C568.532 1103.48 575.979 1104.49 577.897 1105.43" stroke="#191919" stroke-width="2" stroke-linecap="round" stroke-linejoin="round"/>
<path d="M415.965 913.685C413.567 917.398 411.473 925.327 411.976 930.329" stroke="#191919" stroke-width="2" stroke-linecap="round" stroke-linejoin="round"/>
<path d="M427.181 924.191C426.272 928.763 426.172 938.966 428.748 944.195" stroke="#191919" stroke-width="2" stroke-linecap="round" stroke-linejoin="round"/>
<path d="M443.136 923.759C443.766 926.082 445.306 931.057 446.67 932.548" stroke="#191919" stroke-width="2" stroke-linecap="round" stroke-linejoin="round"/>
<path d="M446.24 1015.76C448.562 1020.24 454.066 1025.11 454.066 1025.11" stroke="#191919" stroke-width="2" stroke-linecap="round" stroke-linejoin="round"/>
<path d="M483.053 970.175C485.072 975.428 494.01 983.435 507.692 984.292" stroke="#191919" stroke-width="2" stroke-linecap="round" stroke-linejoin="round"/>
<path d="M489.033 1078.85C491.507 1081.73 496.48 1085.47 499.587 1086.86" stroke="#191919" stroke-width="2" stroke-linecap="round" stroke-linejoin="round"/>
<path d="M624.682 1087.9C629.025 1089.59 633.872 1090 638.44 1089.01" stroke="#191919" stroke-width="2" stroke-linecap="round" stroke-linejoin="round"/>
<path d="M511.656 1081.33C518.573 1086.76 527.738 1088.28 536.473 1089.59" stroke="#191919" stroke-width="2" stroke-linecap="round" stroke-linejoin="round"/>
<path d="M470.751 1054.61C472.115 1057.13 474.085 1059.33 476.407 1061.04" stroke="#191919" stroke-width="2" stroke-linecap="round" stroke-linejoin="round"/>
<path d="M586.459 1038.7C589.666 1040.06 593.224 1040.55 596.685 1040.09" stroke="#191919" stroke-width="2" stroke-linecap="round" stroke-linejoin="round"/>
<path d="M622.282 976.745L631.498 979.98" stroke="#191919" stroke-width="2" stroke-linecap="round" stroke-linejoin="round"/>
<path d="M641.974 824.856C646.039 824.829 650.103 825.765 653.689 827.661" stroke="#191919" stroke-width="2" stroke-linecap="round" stroke-linejoin="round"/>
<path d="M597.086 846.907C600.923 846.729 604.785 847.286 608.422 848.549" stroke="#191919" stroke-width="2" stroke-linecap="round" stroke-linejoin="round"/>
<path d="M702.335 889.612C705.012 891.811 708.091 893.453 711.425 894.438" stroke="#191919" stroke-width="2" stroke-linecap="round" stroke-linejoin="round"/>
<path d="M731.269 969.425C734.399 971.976 738.312 973.493 742.328 973.796" stroke="#191919" stroke-width="2" stroke-linecap="round" stroke-linejoin="round"/>
<path d="M777.471 990.834C780.981 991.743 784.742 991.743 788.279 990.91" stroke="#191919" stroke-width="2" stroke-linecap="round" stroke-linejoin="round"/>
<path d="M936.322 1004.53C939.653 1003.37 943.263 1003.04 946.721 1003.7" stroke="#191919" stroke-width="2" stroke-linecap="round" stroke-linejoin="round"/>
<path d="M865.402 1029L877.774 1032.57" stroke="#191919" stroke-width="2" stroke-linecap="round" stroke-linejoin="round"/>
<path d="M829.755 1058.78C835.486 1058.78 841.191 1059.69 846.619 1061.56" stroke="#191919" stroke-width="2" stroke-linecap="round" stroke-linejoin="round"/>
<path d="M790.777 1055.36C796.027 1055.47 801.279 1056.32 806.277 1057.87" stroke="#191919" stroke-width="2" stroke-linecap="round" stroke-linejoin="round"/>
<path d="M1089.9 1003.34C1096.94 1002.68 1103.96 1002.02 1111 1001.34" stroke="#191919" stroke-width="2" stroke-linecap="round" stroke-linejoin="round"/>
<path d="M1209.38 1003.99C1215.16 1004.2 1220.94 1005.13 1226.47 1006.82" stroke="#191919" stroke-width="2" stroke-linecap="round" stroke-linejoin="round"/>
<path d="M1135.08 1069.77C1139.73 1069.39 1144.47 1069.79 1149.02 1071.03" stroke="#191919" stroke-width="2" stroke-linecap="round" stroke-linejoin="round"/>
<path d="M1005.12 1056.08C1010.17 1055.77 1015.29 1056.83 1019.81 1059.13" stroke="#191919" stroke-width="2" stroke-linecap="round" stroke-linejoin="round"/>
<path d="M1014.33 1070.47C1018.75 1072.92 1023.39 1074.99 1028.17 1076.68" stroke="#191919" stroke-width="2" stroke-linecap="round" stroke-linejoin="round"/>
<path d="M1104.81 1154.25L1116.1 1159.58" stroke="#191919" stroke-width="2" stroke-linecap="round" stroke-linejoin="round"/>
<path d="M1028.4 1153.96L1042.93 1160.65" stroke="#191919" stroke-width="2" stroke-linecap="round" stroke-linejoin="round"/>
<path d="M1192.77 1113.16L1207.92 1121.84" stroke="#191919" stroke-width="2" stroke-linecap="round" stroke-linejoin="round"/>
<path d="M822.283 1076.23C825.641 1077.44 828.772 1079.26 831.5 1081.59" stroke="#191919" stroke-width="2" stroke-linecap="round" stroke-linejoin="round"/>
<path d="M524.856 970.686C524.477 966.872 522.762 962 518.418 958.74" stroke="#191919" stroke-width="2" stroke-linecap="round" stroke-linejoin="round"/>
<path d="M521.498 959.59C524.753 957.269 526.093 953.503 524.45 951.231C522.81 948.932 518.846 948.983 515.59 951.307C512.332 953.631 510.996 957.393 512.636 959.668C514.278 961.965 518.24 961.914 521.498 959.59Z" fill="#4D4A69" stroke="#191919" stroke-width="2" stroke-linecap="round" stroke-linejoin="round"/>
<path d="M472.824 877.081C459.9 881.931 414.809 882.107 396.909 866.044" stroke="#191919" stroke-width="2" stroke-linecap="round" stroke-linejoin="round"/>
<path d="M282.416 658.72C346.035 662.989 448.004 715.242 522.028 825.382" stroke="#191919" stroke-width="2" stroke-linecap="round" stroke-linejoin="round"/>
<path d="M541.945 822.129C540.229 816.246 535.683 808.921 532.024 803.289" stroke="#191919" stroke-width="2" stroke-linecap="round" stroke-linejoin="round"/>
<path d="M286.231 718.858C286.534 717.016 284.161 715.096 280.954 714.565C277.748 714.06 274.895 715.12 274.592 716.989C274.314 718.834 276.662 720.752 279.893 721.285" stroke="#191919" stroke-width="2" stroke-linecap="round" stroke-linejoin="round"/>
<path d="M301.805 684.507C322.003 687.74 348.814 696.983 378.756 714.563" stroke="#F3BCAB" stroke-width="2" stroke-linecap="round" stroke-linejoin="round"/>
<path d="M267.446 687.312C271.762 684.28 279.512 682.763 289.89 683.244" stroke="#F3BCAB" stroke-width="2" stroke-linecap="round" stroke-linejoin="round"/>
<path d="M691.56 1243.14C697.57 1243.85 701.052 1245.29 703.602 1247.21" stroke="#191919" stroke-width="2" stroke-linecap="round" stroke-linejoin="round"/>
<path d="M621.776 1176.27C621.373 1183.39 625.11 1193.14 627.608 1196.19" stroke="#191919" stroke-width="2" stroke-linecap="round" stroke-linejoin="round"/>
<path d="M637.504 1190.66C638.31 1193.66 643.766 1198.54 643.766 1198.54" stroke="#191919" stroke-width="2" stroke-linecap="round" stroke-linejoin="round"/>
<path d="M648.791 1216.5C651.821 1223.01 657.474 1227.76 660.581 1228.67" stroke="#191919" stroke-width="2" stroke-linecap="round" stroke-linejoin="round"/>
<path d="M666.209 1204.02C667.977 1208.13 674.717 1214.83 674.717 1214.83" stroke="#191919" stroke-width="2" stroke-linecap="round" stroke-linejoin="round"/>
<path d="M765.405 1116.41C776.11 1119.82 785.248 1130.55 789.516 1135.63" stroke="#191919" stroke-width="2" stroke-linecap="round" stroke-linejoin="round"/>
<path d="M776.56 1184.98C780.196 1187.18 784.816 1192.3 784.816 1192.3" stroke="#191919" stroke-width="2" stroke-linecap="round" stroke-linejoin="round"/>
<path d="M738.188 1225.37C745.635 1227.06 750.863 1232.49 750.863 1232.49" stroke="#191919" stroke-width="2" stroke-linecap="round" stroke-linejoin="round"/>
<path d="M412.663 960.805C428.088 967.497 436.974 962.495 443.133 956.282C449.295 950.071 453.838 946.611 465.301 943.303C480.271 938.958 494.713 933.73 504.71 923.45C515.566 912.262 513.496 903.725 512.562 888.75C516.576 887.108 545.76 889.253 546.569 867.434C556.365 851.826 549.901 843.113 556.742 830.989C563.585 818.867 570.932 808.764 559.142 797.449C547.351 786.134 531.445 779.871 493.552 780.832C485.396 768.329 414.43 679.554 378.226 660.638C342.024 641.697 324.552 644.172 303.523 643.92C289.914 636.468 242.78 634.675 236.367 662.028C229.98 689.379 266.712 715.218 296.731 744.665C361.034 807.779 388.528 867.913 404.053 886.275C400.091 889.432 391.759 895.037 393.247 907.034C394.738 919.03 398.7 922.869 396.909 931.76C395.117 940.649 393.198 952.368 412.688 960.829L412.663 960.805Z" fill="#E47D5A" stroke="#191919" stroke-width="2" stroke-linecap="round" stroke-linejoin="round"/>
<path d="M303.498 643.918C363.811 670.284 460.176 763.858 496.277 839.12C502.715 845.131 522.028 848.54 527.886 873.012" stroke="#191919" stroke-width="2" stroke-linecap="round" stroke-linejoin="round"/>
<path d="M519.882 814.878C513.797 810.785 506.098 798.512 493.525 780.832" stroke="#191919" stroke-width="2" stroke-linecap="round" stroke-linejoin="round"/>
<path d="M469.798 894.807C478.634 893.898 487.621 892.484 496.28 890.487" stroke="#191919" stroke-width="2" stroke-linecap="round" stroke-linejoin="round"/>
<path d="M404.028 886.246C410.845 892.257 426.042 895.438 444.27 895.868" stroke="#191919" stroke-width="2" stroke-linecap="round" stroke-linejoin="round"/>
<path d="M326.827 726.027C327.861 724.916 326.094 721.583 322.914 718.602C319.732 715.623 316.273 714.082 315.24 715.193C314.203 716.305 315.97 719.638 319.153 722.619" stroke="#191919" stroke-width="2" stroke-linecap="round" stroke-linejoin="round"/>
<path d="M305.163 725.978C304.102 727.114 300.644 725.624 297.437 722.619C294.231 719.638 292.515 716.281 293.573 715.142C294.634 714.006 298.092 715.496 301.299 718.502" stroke="#191919" stroke-width="2" stroke-linecap="round" stroke-linejoin="round"/>
<path d="M275.602 675.819C287.441 674.934 306.099 680.087 333.314 699.231" stroke="#F3BCAB" stroke-width="2" stroke-linecap="round" stroke-linejoin="round"/>
<path d="M259.368 691.178C257.676 687.591 259.773 681.326 266.842 677.993" stroke="#F3BCAB" stroke-width="2" stroke-linecap="round" stroke-linejoin="round"/>
<path d="M455.962 820.253C447.252 804.797 424.077 772.217 405.016 755.094" stroke="#F3BCAB" stroke-width="2" stroke-linecap="round" stroke-linejoin="round"/>
<path d="M941.471 1258.02C931.072 1239.91 927.308 1234.71 928.092 1227.06C926.022 1227.06 923.598 1228.5 922.664 1230.8C917.715 1214.96 906.43 1209.45 898.226 1174.83C904.588 1171.17 932.584 1163.46 958.084 1167.05C968.789 1168.54 994.691 1178.77 1008.27 1178.79C1023.19 1178.79 1025.39 1174.58 1027.66 1173.49C1029.93 1172.4 1050.03 1173.89 1054.68 1171.01C1058.01 1168.94 1054.7 1150.4 1067.85 1131.99C1076.57 1119.8 1114.49 1105.78 1115.75 1096.79C1116.58 1090.88 1099.79 1080.98 1099.01 1067.67C1097.72 1045.52 1114.79 1026.45 1110.37 1022.23C1107.31 1019.33 1080.76 1029.05 1064.19 1014.15C1053.99 1004.98 1059.8 982.782 1056.87 979.626C1054.58 977.175 1045.49 980.686 1034.76 986.597C1017.06 996.319 993.833 1011.2 961.542 1004.58C945.611 1001.32 941.271 982.101 937.079 981.495C931.675 980.711 918.069 1006.85 916.226 1010.77C909.789 1013.52 907.591 1019.53 906.355 1026.12C905.118 1032.71 897.998 1039.76 886.411 1055.85C874.821 1071.94 836.322 1096.61 815.291 1113.15C798.451 1126.39 786.964 1161.11 795.75 1202" fill="#A57BEC"/>
<path d="M941.471 1258.02C931.072 1239.91 927.308 1234.71 928.092 1227.06C926.022 1227.06 923.598 1228.5 922.664 1230.8C917.715 1214.96 906.43 1209.45 898.226 1174.83C904.588 1171.17 932.584 1163.46 958.084 1167.05C968.789 1168.54 994.691 1178.77 1008.27 1178.79C1023.19 1178.79 1025.39 1174.58 1027.66 1173.49C1029.93 1172.4 1050.03 1173.89 1054.68 1171.01C1058.01 1168.94 1054.7 1150.4 1067.85 1131.99C1076.57 1119.8 1114.49 1105.78 1115.75 1096.79C1116.58 1090.88 1099.79 1080.98 1099.01 1067.67C1097.72 1045.52 1114.79 1026.45 1110.37 1022.23C1107.31 1019.33 1080.76 1029.05 1064.19 1014.15C1053.99 1004.98 1059.8 982.782 1056.87 979.626C1054.58 977.175 1045.49 980.686 1034.76 986.597C1017.06 996.319 993.833 1011.2 961.542 1004.58C945.611 1001.32 941.271 982.101 937.079 981.495C931.675 980.711 918.069 1006.85 916.226 1010.77C909.789 1013.52 907.591 1019.53 906.355 1026.12C905.118 1032.71 897.998 1039.76 886.411 1055.85C874.821 1071.94 836.322 1096.61 815.291 1113.15C798.451 1126.39 786.964 1161.11 795.75 1202" stroke="#191919" stroke-width="2" stroke-linecap="round" stroke-linejoin="round"/>
<path d="M886.232 1192.66C887.318 1184.96 889.967 1179.93 898.199 1174.86" stroke="#191919" stroke-width="2" stroke-linecap="round" stroke-linejoin="round"/>
<path d="M927.862 1023.11C929.554 1027.28 927.611 1035.29 923.116 1040.67C918.648 1046.04 915.972 1051.88 919.582 1055.49C923.216 1059.1 934.3 1056.73 944.348 1051.5C954.395 1046.27 975.175 1029.33 982.698 1022.93" stroke="#191919" stroke-width="2" stroke-linecap="round" stroke-linejoin="round"/>
<path d="M1024.91 1011.27C1027.33 1016.17 1024.53 1025.72 1018.29 1030.42C1012.06 1035.14 992.164 1045.6 984.69 1051.79C977.194 1057.97 976.537 1062.75 978.531 1064.84C980.525 1066.94 988.403 1065.35 996.053 1062.29" stroke="#191919" stroke-width="2" stroke-linecap="round" stroke-linejoin="round"/>
<path d="M1003.63 1087.77C1005.95 1078.14 1049.93 1064.41 1062.5 1062.56C1071.31 1061.28 1076.31 1057.26 1077.75 1049" stroke="#191919" stroke-width="2" stroke-linecap="round" stroke-linejoin="round"/>
<path d="M1078.08 1102.78C1072.67 1108.84 1064.52 1107.88 1054.9 1108.64C1030.14 1110.58 988.527 1114.24 985.096 1127C981.662 1139.75 1000.19 1144.02 1007.74 1145.08C1015.29 1146.14 1025.21 1144.83 1029.05 1154.28" stroke="#191919" stroke-width="2" stroke-linecap="round" stroke-linejoin="round"/>
<path d="M893.174 1197.26C892.822 1201.2 896.886 1209.76 898.781 1214.23" stroke="#191919" stroke-width="2" stroke-linecap="round" stroke-linejoin="round"/>
<path d="M886.232 1224.25C887.173 1227.47 888.42 1230.58 889.967 1233.6" stroke="#191919" stroke-width="2" stroke-linecap="round" stroke-linejoin="round"/>
<path d="M908.447 1230.72C910.668 1235.88 914.405 1242.29 914.405 1242.29" stroke="#191919" stroke-width="2" stroke-linecap="round" stroke-linejoin="round"/>
<path d="M859.697 1236.23C862.828 1241.1 864.116 1248.93 863.662 1250.3" stroke="#191919" stroke-width="2" stroke-linecap="round" stroke-linejoin="round"/>
<path d="M846.343 1247.84C847.834 1253.6 848.264 1255.67 847.758 1259.33" stroke="#191919" stroke-width="2" stroke-linecap="round" stroke-linejoin="round"/>
<path d="M813.675 1128.83C810.141 1134.52 807.665 1140.78 806.604 1144.01" stroke="#191919" stroke-width="2" stroke-linecap="round" stroke-linejoin="round"/>
<path d="M798.3 1210.05C799.082 1225.36 792.695 1235.24 785.5 1242.26" stroke="#191919" stroke-width="2" stroke-linecap="round" stroke-linejoin="round"/>
<path d="M803.249 1175.79C801.756 1181.22 804.437 1189.61 804.437 1189.61" stroke="#191919" stroke-width="2" stroke-linecap="round" stroke-linejoin="round"/>
<path d="M872.346 1091.58C868.481 1095.27 857.273 1103.43 857.273 1103.43" stroke="#191919" stroke-width="2" stroke-linecap="round" stroke-linejoin="round"/>
<path d="M890.903 1098.43C889.716 1100.8 884.087 1104.74 884.087 1104.74" stroke="#191919" stroke-width="2" stroke-linecap="round" stroke-linejoin="round"/>
<path d="M929.326 1094.51C923.671 1097.11 916.048 1101.96 916.048 1101.96" stroke="#191919" stroke-width="2" stroke-linecap="round" stroke-linejoin="round"/>
<path d="M933.418 1108.02C932.988 1108.98 921.325 1114.11 921.325 1114.11" stroke="#191919" stroke-width="2" stroke-linecap="round" stroke-linejoin="round"/>
<path d="M900.042 1143.73C905.822 1139.9 912.715 1133.66 918.773 1132.39" stroke="#191919" stroke-width="2" stroke-linecap="round" stroke-linejoin="round"/>
<path d="M909.407 1154.27C913.826 1149.47 920.743 1150.02 924.656 1151.01" stroke="#191919" stroke-width="2" stroke-linecap="round" stroke-linejoin="round"/>
<path d="M870.981 1176.9C865.023 1185.18 865.959 1198.24 865.656 1200.41" stroke="#191919" stroke-width="2" stroke-linecap="round" stroke-linejoin="round"/>
<path d="M865.05 1159.14C860.027 1161.82 855.963 1168.91 855.963 1168.91" stroke="#191919" stroke-width="2" stroke-linecap="round" stroke-linejoin="round"/>
<path d="M1055.89 1174.78C1055.66 1176.4 1030.46 1177.61 1026.75 1172.18C1025.31 1170.08 1024.76 1164.91 1028.82 1162C1035.28 1157.41 1056.16 1172.89 1055.91 1174.78H1055.89Z" fill="#D0BAF7" stroke="#191919" stroke-width="2" stroke-linecap="round" stroke-linejoin="round"/>
<path d="M1102.62 1094.01C1102.9 1095.6 1079.29 1104.54 1074.09 1100.52C1072.09 1098.98 1069.95 1094.21 1072.93 1090.19C1077.67 1083.8 1102.29 1092.14 1102.62 1094.01Z" fill="#D0BAF7" stroke="#191919" stroke-width="2" stroke-linecap="round" stroke-linejoin="round"/>
<path d="M1101.43 1033.04C1102.29 1034.63 1080.5 1052.09 1073.66 1049.64C1071.03 1048.7 1067.15 1044.41 1068.91 1039.18C1071.72 1030.85 1100.45 1031.2 1101.43 1033.04Z" fill="#D0BAF7" stroke="#191919" stroke-width="2" stroke-linecap="round" stroke-linejoin="round"/>
<path d="M1045.79 995.005C1047.05 996.292 1031.02 1019.13 1023.75 1018.7C1020.95 1018.52 1016.05 1015.49 1016.27 1009.98C1016.65 1001.19 1044.32 993.514 1045.79 995.005Z" fill="#D0BAF7" stroke="#191919" stroke-width="2" stroke-linecap="round" stroke-linejoin="round"/>
<path d="M932.127 988.992C933.618 989.549 928.696 1015.08 922.634 1017.66C920.313 1018.64 915.239 1018.11 913.472 1013.42C910.644 1005.94 930.412 988.31 932.127 988.967V988.992Z" fill="#D0BAF7" stroke="#191919" stroke-width="2" stroke-linecap="round" stroke-linejoin="round"/>
<path d="M1324.73 975.557C1334.48 974.167 1348.39 975.557 1348.39 975.557" stroke="#191919" stroke-width="2" stroke-linecap="round" stroke-linejoin="round"/>
<path d="M1324.73 1065.32C1330.99 1066.03 1336.55 1069.61 1336.55 1069.61" stroke="#191919" stroke-width="2" stroke-linecap="round" stroke-linejoin="round"/>
<path d="M1293.96 1125.63C1300.04 1127.29 1307.21 1128.94 1307.21 1128.94" stroke="#191919" stroke-width="2" stroke-linecap="round" stroke-linejoin="round"/>
<path d="M1302.14 1138.71C1305.32 1139.06 1313.78 1141.18 1313.78 1141.18" stroke="#191919" stroke-width="2" stroke-linecap="round" stroke-linejoin="round"/>
<path d="M1293.96 1254.16C1307.94 1204.83 1351.92 1180.64 1348.39 1167.33C1349.88 1166.37 1355.28 1171.82 1353.26 1177.79C1375.86 1151.11 1422.54 1105.83 1490.3 1075.14L1487.85 1253.6L1293.96 1254.16Z" fill="#A57BEC" stroke="#191919" stroke-width="2" stroke-linecap="round" stroke-linejoin="round"/>
<path d="M1022.36 1203.67C1025.92 1203.67 1032.01 1204.68 1034.81 1202.41" stroke="#191919" stroke-width="2" stroke-linecap="round" stroke-linejoin="round"/>
<path d="M951.038 1200.41C957.602 1200.56 966.11 1203.89 966.11 1203.89" stroke="#191919" stroke-width="2" stroke-linecap="round" stroke-linejoin="round"/>
<path d="M1061.21 1228.93C1070.05 1228.93 1077.75 1230.72 1077.75 1230.72" stroke="#191919" stroke-width="2" stroke-linecap="round" stroke-linejoin="round"/>
<path d="M990.321 1229.84C995.398 1231.78 1001.66 1233.63 1001.66 1233.63" stroke="#191919" stroke-width="2" stroke-linecap="round" stroke-linejoin="round"/>
<path d="M1226.48 1200.41C1231.25 1206.24 1237.08 1205.74 1237.08 1205.74" stroke="#191919" stroke-width="2" stroke-linecap="round" stroke-linejoin="round"/>
<path d="M1406.56 1162.12C1411.63 1154.75 1419.46 1149.21 1419.46 1149.21" stroke="#191919" stroke-width="2" stroke-linecap="round" stroke-linejoin="round"/>
<path d="M1441.09 1117.5C1446.17 1114.22 1456.29 1106.84 1456.29 1106.84" stroke="#191919" stroke-width="2" stroke-linecap="round" stroke-linejoin="round"/>
<path d="M1344.85 1210.03C1347.61 1201.74 1352.23 1196.67 1352.23 1196.67" stroke="#191919" stroke-width="2" stroke-linecap="round" stroke-linejoin="round"/>
<path d="M1380.3 1239.99C1384.89 1228.92 1398.73 1218.34 1398.73 1218.34" stroke="#191919" stroke-width="2" stroke-linecap="round" stroke-linejoin="round"/>
<path d="M1382.65 884.413C1386.36 882.141 1391.21 876.206 1391.21 876.206" stroke="#191919" stroke-width="2" stroke-linecap="round" stroke-linejoin="round"/>
<path d="M1348.39 953.255C1352.08 949.265 1364.93 940.4 1364.93 940.4" stroke="#191919" stroke-width="2" stroke-linecap="round" stroke-linejoin="round"/>
<path d="M1421.43 962.904C1430.04 954.115 1446.6 953.255 1446.6 953.255" stroke="#191919" stroke-width="2" stroke-linecap="round" stroke-linejoin="round"/>
<path d="M1419.76 941.844C1423.75 936.694 1429.76 935.558 1429.76 935.558" stroke="#191919" stroke-width="2" stroke-linecap="round" stroke-linejoin="round"/>
<path d="M1446.6 900.972C1452.6 895.543 1461.72 894.458 1461.72 894.458" stroke="#191919" stroke-width="2" stroke-linecap="round" stroke-linejoin="round"/>
<path d="M1416.63 872.997C1421.48 866.987 1431.48 862.994 1431.48 862.994" stroke="#191919" stroke-width="2" stroke-linecap="round" stroke-linejoin="round"/>
<path d="M1455.26 962.904C1462.02 958.989 1475.15 953.255 1475.15 953.255" stroke="#191919" stroke-width="2" stroke-linecap="round" stroke-linejoin="round"/>
<path d="M1309.84 938.683C1312.69 933.53 1318.4 929.264 1318.4 929.264" stroke="#191919" stroke-width="2" stroke-linecap="round" stroke-linejoin="round"/>
<path d="M860.296 647.661L895.491 608.995" stroke="#191919" stroke-width="2" stroke-linecap="round" stroke-linejoin="round"/>
<path d="M905.34 753.781L870.146 792.447" stroke="#191919" stroke-width="2" stroke-linecap="round" stroke-linejoin="round"/>
<path d="M941.518 887.866L976.786 849.251" stroke="#191919" stroke-width="2" stroke-linecap="round" stroke-linejoin="round"/>
<path d="M934.777 788.314L969.945 749.647" stroke="#191919" stroke-width="2" stroke-linecap="round" stroke-linejoin="round"/>
<path d="M924.932 643.52L960.2 604.979" stroke="#191919" stroke-width="2" stroke-linecap="round" stroke-linejoin="round"/>
<path opacity="0.5" d="M551.44 1161.34C562.162 1161.34 570.856 1152.65 570.856 1141.92C570.856 1131.19 562.162 1122.5 551.44 1122.5C540.718 1122.5 532.027 1131.19 532.027 1141.92C532.027 1152.65 540.718 1161.34 551.44 1161.34Z" fill="#F5F0FF" stroke="#191919" stroke-width="2" stroke-linecap="round" stroke-linejoin="round"/>
<path d="M551.44 1161.34C562.162 1161.34 570.856 1152.65 570.856 1141.92C570.856 1131.19 562.162 1122.5 551.44 1122.5C540.718 1122.5 532.027 1131.19 532.027 1141.92C532.027 1152.65 540.718 1161.34 551.44 1161.34Z" stroke="#191919" stroke-width="2" stroke-linecap="round" stroke-linejoin="round"/>
</g>
</g>
<defs>
<clipPath id="clip0_73_1111">
<rect width="1486" height="1251" fill="white"/>
</clipPath>
</defs>
</svg>
